<svg width="23" height="23" viewBox="0 0 23 23" fill="none" xmlns="http://www.w3.org/2000/svg">
<g clip-path="url(#clip0_11_60)">
<path d="M4.99107 13.1165C5.26029 12.6229 5.96899 12.6229 6.2382 13.1165L10.724 21.3406C10.9822 21.8139 10.6396 22.391 10.1004 22.391H1.12881C0.589653 22.391 0.247069 21.8139 0.505245 21.3406L4.99107 13.1165Z" fill="#086B6C"/>
<path d="M0.879272 2.02935C0.879272 1.24478 1.5153 0.608765 2.29987 0.608765H8.92927C9.71384 0.608765 10.3499 1.24478 10.3499 2.02935V8.65876C10.3499 9.44334 9.71384 10.0794 8.92927 10.0794H2.29986C1.5153 10.0794 0.879272 9.44334 0.879272 8.65876V2.02935Z" fill="#22CCB8"/>
<path d="M12.7175 14.3411C12.7175 13.5566 13.3535 12.9205 14.1381 12.9205H20.7675C21.5521 12.9205 22.1881 13.5566 22.1881 14.3411V20.9705C22.1881 21.7551 21.5521 22.3911 20.7675 22.3911H14.1381C13.3535 22.3911 12.7175 21.7551 12.7175 20.9705V14.3411Z" fill="#22CCB8"/>
<path d="M22.1881 5.34406C22.1881 7.95929 20.068 10.0794 17.4528 10.0794C14.8376 10.0794 12.7175 7.95929 12.7175 5.34406C12.7175 2.72883 14.8376 0.608765 17.4528 0.608765C20.068 0.608765 22.1881 2.72883 22.1881 5.34406Z" fill="#086B6C"/>
</g>
<defs>
<clipPath id="clip0_11_60">
<rect width="22.3235" height="23" fill="white"/>
</clipPath>
</defs>
</svg>
