<svg width="22" height="21" viewBox="0 0 22 21" fill="none" xmlns="http://www.w3.org/2000/svg">
<g clip-path="url(#clip0_11_65)">
<path d="M0.420067 1.68008C0.420067 0.868224 1.07821 0.210083 1.89007 0.210083H20.0773C20.8891 0.210083 21.5473 0.868224 21.5473 1.68008V19.0547C21.5473 19.8665 20.8891 20.5247 20.0773 20.5247H1.89007C1.07821 20.5247 0.420067 19.8665 0.420067 19.0547V1.68008Z" fill="#22CCB8"/>
<path d="M18.297 6.30462C18.297 7.87533 17.0237 9.1487 15.4529 9.1487C13.8822 9.1487 12.6089 7.87533 12.6089 6.30462C12.6089 4.7339 13.8822 3.46057 15.4529 3.46057C17.0237 3.46057 18.297 4.7339 18.297 6.30462Z" fill="#086B6C"/>
<path fill-rule="evenodd" clip-rule="evenodd" d="M21.5473 17.8111V19.5441C21.5473 20.0854 21.1085 20.5241 20.5673 20.5241H1.40007C0.858828 20.5241 0.420067 20.0854 0.420067 19.5441V18.3961L5.90456 8.4718C6.52284 7.35299 8.13113 7.35299 8.74937 8.4718L13.6711 17.3778L16.0767 13.2111C16.7022 12.1278 18.266 12.1278 18.8915 13.2111L21.5473 17.8111Z" fill="#086B6C"/>
</g>
<defs>
<clipPath id="clip0_11_65">
<rect width="21.7" height="21" fill="white"/>
</clipPath>
</defs>
</svg>
