<svg width="25" height="26" viewBox="0 0 25 26" fill="none" xmlns="http://www.w3.org/2000/svg">
<g clip-path="url(#clip0_11_52)">
<path d="M1.87301 12.9701C1.81617 12.7744 1.8336 12.5646 1.92196 12.3809L5.35062 5.25258C5.5641 4.80876 6.11567 4.6486 6.53362 4.90906L13.2469 9.09234C13.42 9.20012 13.5471 9.368 13.6039 9.56371L17.0842 21.5489C17.2116 21.9877 16.9592 22.4467 16.5204 22.5741L6.37845 25.5191C5.93964 25.6465 5.48068 25.3941 5.35328 24.9554L1.87301 12.9701Z" fill="#086B6C"/>
<path fill-rule="evenodd" clip-rule="evenodd" d="M5.65158 13.4468C5.68046 13.7357 5.80971 14.0052 6.01681 14.2086L15.269 23.2957C15.758 23.7759 16.5436 23.7689 17.0239 23.2799L23.8443 16.3355C24.3245 15.8466 24.3175 15.0609 23.8285 14.5807L14.5763 5.49359C14.3692 5.29017 14.0973 5.16581 13.808 5.14213L6.23114 4.52206C5.45876 4.45885 4.81805 5.11121 4.89516 5.88231L5.65158 13.4468ZM9.39487 8.96537C9.86759 8.48402 9.86068 7.71064 9.37932 7.23791C8.89803 6.76518 8.12459 6.77216 7.65186 7.25345C7.17913 7.73481 7.18611 8.50819 7.6674 8.98092C8.14876 9.45364 8.92214 9.44667 9.39487 8.96537Z" fill="#22CCB8"/>
</g>
<defs>
<clipPath id="clip0_11_52">
<rect width="24.8182" height="26" fill="white"/>
</clipPath>
</defs>
</svg>
