<svg width="24" height="24" viewBox="0 0 24 24" fill="none" xmlns="http://www.w3.org/2000/svg">
<path d="M0.222656 6.33577C0.222656 5.23075 0.81326 4.20283 2.25921 3.81588C3.70516 3.42893 17.5333 0.333374 17.5333 0.333374C18.6581 0.333374 19.5699 1.22916 19.5699 2.33417V9.83717V17.3402C19.5699 18.4452 18.6581 19.341 17.5333 19.341L2.25921 22.3422C1.13445 23.3426 0.222656 22.4468 0.222656 21.3418V6.33577Z" fill="#086B6C"/>
<path d="M0.133465 6.57113C0.133465 5.28246 1.17813 4.23779 2.4668 4.23779H19.2668C20.5555 4.23779 21.6001 5.28246 21.6001 6.57113V21.0378C21.6001 22.3265 20.5555 23.3711 19.2668 23.3711H2.4668C1.17813 23.3711 0.133465 22.3265 0.133465 21.0378V6.57113Z" fill="#22CCB8"/>
<path d="M10.8665 11.7044C10.8665 10.4158 11.9112 9.37109 13.1999 9.37109H20.6665C21.9552 9.37109 22.9999 10.4158 22.9999 11.7044V15.4378C22.9999 16.7264 21.9552 17.7711 20.6665 17.7711H13.1999C11.9112 17.7711 10.8665 16.7264 10.8665 15.4378V11.7044Z" fill="#086B6C"/>
<path d="M16.4745 13.7188C16.4745 14.5736 15.7815 15.2666 14.9267 15.2666C14.0719 15.2666 13.3789 14.5736 13.3789 13.7188C13.3789 12.864 14.0719 12.171 14.9267 12.171C15.7815 12.171 16.4745 12.864 16.4745 13.7188Z" fill="#22CCB8"/>
</svg>
